<?xml version="1.0" encoding="UTF-8"?>
<svg version="1.1" xmlns="http://www.w3.org/2000/svg" width="222" height="222">
<path d="M0 0 C0.65880157 0.00054382 1.31760315 0.00108765 1.99636841 0.00164795 C32.06915602 0.11547896 59.1091305 12.09387812 80.625 33.125 C101.19898706 54.03439604 111.84959476 81.75504984 111.8125 110.9375 C111.81268127 111.92420685 111.81268127 111.92420685 111.81286621 112.93084717 C111.77237472 128.45180105 108.79920269 141.82995546 103.4375 156.375 C104.0975 156.375 104.7575 156.375 105.4375 156.375 C105.51889142 158.77152528 105.57817009 161.16525436 105.625 163.5625 C105.65013672 164.23603516 105.67527344 164.90957031 105.70117188 165.60351562 C105.76660113 170.07451439 105.24116713 172.85908486 102.4375 176.375 C98.81055444 178.32797069 96.19723661 179.3609308 92.0625 179.4375 C86.13268767 180.97107215 83.23995069 185.78465412 79.4375 190.375 C63.68110967 208.35007059 38.78859216 219.28073558 15.4375 222.375 C10.58015783 222.69350853 5.74191884 222.75680385 0.875 222.75 C0.21619843 222.74945618 -0.44260315 222.74891235 -1.12136841 222.74835205 C-31.42917948 222.63363143 -58.74535539 210.51836624 -80.125 189 C-81.94838831 187.13512322 -83.75580642 185.25616797 -85.5625 183.375 C-87.77088766 181.07558561 -89.28574508 179.51675252 -92.125 178.0625 C-96.96845721 174.70933731 -97.65271307 169.03228325 -98.90625 163.58984375 C-99.67977052 160.97921201 -100.76726431 158.6457085 -101.9375 156.1875 C-108.6440937 141.8840568 -110.95942507 127.49590154 -110.9375 111.8125 C-110.93695618 111.15369843 -110.93641235 110.49489685 -110.93585205 109.81613159 C-110.82202104 79.74334398 -98.84362188 52.7033695 -77.8125 31.1875 C-56.9048233 10.61520471 -29.181153 -0.04079465 0 0 Z " fill="#FEFEFE" transform="translate(110.5625,-0.375)"/>
<path d="M0 0 C8.3687424 6.08635811 14.54739716 12.57359887 19.40625 21.75 C20.05787109 22.94109375 20.05787109 22.94109375 20.72265625 24.15625 C25.56149741 34.81181659 25.20385304 49.7421431 21.46875 60.6875 C21.10910156 61.54214844 20.74945313 62.39679688 20.37890625 63.27734375 C19.15276379 66.39440471 18.41202755 68.35029118 18.40625 71.75 C20.32893985 74.59367667 22.81891413 76.78326717 25.34375 79.08984375 C26.80992036 80.49671924 28.27606541 81.90362109 29.7421875 83.31054688 C32.0745232 85.50590335 34.41333481 87.69411274 36.75488281 89.87963867 C39.00936815 91.99553639 41.23933075 94.13509963 43.46875 96.27734375 C44.17700928 96.92235336 44.88526855 97.56736298 45.61499023 98.23191833 C47.45217518 100.00292106 49.02966599 101.60101622 50.40625 103.75 C50.42943975 107.5552931 50.23793601 109.62903189 47.96875 112.6875 C46.40625 113.75 46.40625 113.75 44.40625 113.75 C44.179375 114.348125 43.9525 114.94625 43.71875 115.5625 C42.01314234 118.40517943 40.39656944 119.35915375 37.40625 120.75 C34.62306168 121.32091042 33.16476979 121.23530887 30.7578125 119.6953125 C29.09375 118.375 29.09375 118.375 26.40625 115.75 C26.40625 115.09 26.40625 114.43 26.40625 113.75 C25.84421875 113.5128125 25.2821875 113.275625 24.703125 113.03125 C21.88730958 111.46052303 19.92669584 109.53528536 17.65625 107.25 C16.45742187 106.05890625 16.45742187 106.05890625 15.234375 104.84375 C13.40625 102.75 13.40625 102.75 13.40625 100.75 C12.84421875 100.5128125 12.2821875 100.275625 11.703125 100.03125 C8.88730958 98.46052303 6.92669584 96.53528536 4.65625 94.25 C3.45742187 93.05890625 3.45742187 93.05890625 2.234375 91.84375 C0.40625 89.75 0.40625 89.75 0.40625 87.75 C-0.82738281 88.25660156 -0.82738281 88.25660156 -2.0859375 88.7734375 C-16.83693199 94.6670219 -30.82176051 97.28218945 -46.109375 90.97265625 C-50.25018222 88.93480616 -53.93886719 86.56295445 -57.59375 83.75 C-58.356875 83.16347656 -59.12 82.57695312 -59.90625 81.97265625 C-69.88465036 73.73036271 -77.09024508 61.73047095 -78.86425781 48.77441406 C-80.18466163 33.54182256 -75.40826385 19.67349108 -65.97265625 7.69140625 C-48.66897441 -10.94013607 -21.07182696 -13.68300452 0 0 Z " fill="#B87977" transform="translate(127.59375,53.25)"/>
<path d="M0 0 C0.3403125 0.89460938 0.680625 1.78921875 1.03125 2.7109375 C6.74849149 16.97363037 15.20791779 27.76076157 29.1875 34.875 C42.80217524 40.59123244 55.42467675 39.39189363 68.984375 34.9375 C71.65261734 34.10799461 74.251968 33.48853902 77 33 C77.43570313 33.51949219 77.87140625 34.03898437 78.3203125 34.57421875 C81.07886916 37.80447666 83.72861414 40.77384511 87 43.5 C90.1506597 46.12554975 92.6188685 48.9606165 95.26171875 52.078125 C96.85328937 53.83779409 98.45348388 55.28449824 100.3125 56.75 C102.86380737 58.88597826 103.68936149 60.07106136 105 63 C98.93108308 63.0493933 92.86228287 63.08571643 86.79321289 63.10986328 C84.728088 63.11992835 82.66297737 63.13358154 80.59790039 63.15087891 C77.63163736 63.17510493 74.66556256 63.18647797 71.69921875 63.1953125 C70.31158577 63.21079636 70.31158577 63.21079636 68.8959198 63.22659302 C68.03525406 63.22674408 67.17458832 63.22689514 66.2878418 63.22705078 C65.53061325 63.231492 64.7733847 63.23593323 63.99320984 63.24050903 C62 63 62 63 59 61 C58.01 61.99 58.01 61.99 57 63 C54.18473807 63.20391973 51.46744235 63.28316522 48.65063477 63.2746582 C47.78709381 63.27976913 46.92355286 63.28488007 46.03384399 63.29014587 C43.16962824 63.30408459 40.30565196 63.30308188 37.44140625 63.30078125 C35.45604868 63.30466588 33.47069195 63.30900006 31.4853363 63.31376648 C27.31986805 63.32123794 23.15448453 63.32093076 18.98901367 63.31567383 C13.64429017 63.30987849 8.29991312 63.32680732 2.95524693 63.3500185 C-1.14620501 63.36473244 -5.24757306 63.36563073 -9.34904671 63.36250877 C-11.31987253 63.36302318 -13.2907029 63.36828322 -15.26150322 63.37832069 C-18.01497951 63.3906223 -20.76777528 63.3839313 -23.52124023 63.37231445 C-24.33952805 63.37995819 -25.15781586 63.38760193 -26.00090027 63.39547729 C-31.57402149 63.34336163 -31.57402149 63.34336163 -33.70578098 61.62504864 C-35.4865491 59.38907872 -35.43328913 57.82970773 -35.4375 55 C-35.45683594 54.13375 -35.47617187 53.2675 -35.49609375 52.375 C-35 50 -35 50 -33.16015625 48.1875 C-31 47 -31 47 -28 47 C-28.02094727 46.44538086 -28.04189453 45.89076172 -28.06347656 45.31933594 C-28.14683548 42.79640977 -28.19871868 40.27377351 -28.25 37.75 C-28.30027344 36.44095703 -28.30027344 36.44095703 -28.3515625 35.10546875 C-28.4488707 28.73178176 -28.4488707 28.73178176 -26.42578125 25.43359375 C-23.18456875 23.51809458 -20.68582955 23.42680237 -16.9375 23.3125 C-11.8783091 23.16205291 -11.8783091 23.16205291 -7 22 C-7.44472656 21.61070312 -7.88945313 21.22140625 -8.34765625 20.8203125 C-10.99030512 18.20776214 -12.81022006 16.23452809 -13.38671875 12.484375 C-13.1589816 8.13784888 -12.56936669 4.9158941 -9.3125 1.875 C-5.71739753 -0.15996366 -4.02139119 -0.1687297 0 0 Z " fill="#E1B5B5" transform="translate(51,108)"/>
<path d="M0 0 C9.41772589 5.44700903 16.81234437 12.96505384 20.49609375 23.40234375 C23.04054515 34.20146888 21.47130032 42.79483918 16.1484375 52.21875 C10.31137156 61.1643126 3.20811537 64.90719071 -6.83203125 68.25390625 C-18.33088686 69.25025595 -27.99201786 67.24549499 -37.05078125 59.89453125 C-44.13786683 53.36695243 -49.33243825 46.13283777 -50.16796875 36.30078125 C-50.43051575 23.96107247 -48.75858577 15.46543944 -39.98046875 6.23046875 C-29.30179054 -3.59391521 -13.27100664 -6.37986416 0 0 Z " fill="#F5D7D7" transform="translate(114.83203125,63.74609375)"/>
<path d="M0 0 C8.07667799 4.67137592 15.73690927 11.2931781 19.16796875 20.25390625 C19.49471227 23.70096172 19.5674762 25.61621549 17.70605469 28.58740234 C15.47382714 30.96770205 13.21997652 33.31583113 10.91796875 35.62890625 C10.16 36.46035156 9.40203125 37.29179688 8.62109375 38.1484375 C4.34719616 42.48644356 1.21373752 44.83593131 -4.98828125 45.1640625 C-10.98360676 44.6927138 -14.14121225 42.71193513 -18.08203125 38.31640625 C-18.64792969 37.77177734 -19.21382812 37.22714844 -19.796875 36.66601562 C-22.94990297 33.36411588 -24.17322444 31.11534961 -24.1484375 26.49609375 C-24.08857666 25.75858887 -24.02871582 25.02108398 -23.96704102 24.26123047 C-23.77626488 21.42477221 -24.31202915 19.64248099 -25.83203125 17.25390625 C-29.8164825 14.79292165 -34.27619941 14.65445469 -38.83203125 15.25390625 C-42.67406186 16.92435434 -44.30752128 18.39412419 -45.83203125 22.25390625 C-45.88846115 24.57962415 -45.70706795 26.81597098 -45.51171875 29.1328125 C-45.83203125 31.25390625 -45.83203125 31.25390625 -47.83984375 33.03125 C-48.49726562 33.43472656 -49.1546875 33.83820313 -49.83203125 34.25390625 C-50.53811718 23.93720625 -48.80748629 16.45105251 -42.08203125 8.44140625 C-31.25333464 -2.95086565 -14.54531934 -6.99247345 0 0 Z " fill="#FEFDFD" transform="translate(114.83203125,63.74609375)"/>
<path d="M0 0 C27.30347464 0.71774468 27.30347464 0.71774468 38.625 1.9375 C39.35702637 2.01210449 40.08905273 2.08670898 40.84326172 2.16357422 C45.74653029 2.74653029 45.74653029 2.74653029 48 5 C48.22705078 7.15478516 48.22705078 7.15478516 48.1953125 9.7890625 C48.18886719 10.73007813 48.18242187 11.67109375 48.17578125 12.640625 C48.15902344 13.62546875 48.14226562 14.6103125 48.125 15.625 C48.11597656 16.61757812 48.10695312 17.61015625 48.09765625 18.6328125 C48.07404116 21.08878134 48.04110799 23.54427168 48 26 C48.804375 26.144375 49.60875 26.28875 50.4375 26.4375 C53 27 53 27 54 28 C54.203125 30.1796875 54.203125 30.1796875 54.25 32.875 C54.27578125 33.75929687 54.3015625 34.64359375 54.328125 35.5546875 C54 38 54 38 52.93530273 39.63452148 C50.0306484 41.68393888 47.1276688 41.37034849 43.70703125 41.29296875 C42.64798836 41.28660149 42.64798836 41.28660149 41.56755066 41.28010559 C39.31547697 41.26333034 37.06430258 41.22568243 34.8125 41.1875 C33.28451815 41.17245157 31.75652224 41.15876344 30.22851562 41.14648438 C26.48533128 41.11343089 22.74281804 41.06165832 19 41 C20.30014166 38.12632241 21.23583088 36.78101419 23.625 34.5625 C26.13828649 32.28355042 26.13828649 32.28355042 26.50390625 29.72363281 C25.75687378 25.68589338 23.18167806 23.58253348 20.3125 20.859375 C19.73540283 20.29172424 19.15830566 19.72407349 18.5637207 19.13922119 C16.72058162 17.33065498 14.86113096 15.54002942 13 13.75 C11.14245543 11.9423224 9.28839277 10.131173 7.4362793 8.31793213 C6.28280413 7.19098705 5.1254852 6.06796104 3.96411133 4.94915771 C2.62453294 3.65130509 1.30947087 2.32822352 0 1 C0 0.67 0 0.34 0 0 Z " fill="#E1B5B5" transform="translate(151,130)"/>
<path d="M0 0 C22.01873227 -1.08447887 22.01873227 -1.08447887 29.13037109 5.33935547 C29.76458984 5.93876953 30.39880859 6.53818359 31.05224609 7.15576172 C37.51010908 11.21041234 44.24957247 11.83161307 51.69677734 12.37060547 C55.05224609 13.15576172 55.05224609 13.15576172 57.50146484 15.53466797 C59.05224609 18.15576172 59.05224609 18.15576172 59.05224609 21.15576172 C48.89958459 21.17888564 38.7469293 21.19667706 28.59424686 21.20757389 C23.88044877 21.21280261 19.16666862 21.21990005 14.45288086 21.23120117 C9.90769206 21.24203045 5.36252057 21.24803864 0.81731987 21.25063896 C-0.92070348 21.25249314 -2.65872584 21.25611361 -4.39674187 21.26149178 C-6.82253985 21.26870275 -9.24826537 21.26975264 -11.67407227 21.26928711 C-12.39983459 21.27288239 -13.12559692 21.27647766 -13.87335205 21.28018188 C-18.83370174 21.26981388 -18.83370174 21.26981388 -19.94775391 20.15576172 C-20.04612601 18.82532547 -20.07853983 17.48982828 -20.08056641 16.15576172 C-20.08185547 15.35138672 -20.08314453 14.54701172 -20.08447266 13.71826172 C-20.08060547 12.87263672 -20.07673828 12.02701172 -20.07275391 11.15576172 C-20.07662109 10.31013672 -20.08048828 9.46451172 -20.08447266 8.59326172 C-20.08318359 7.78888672 -20.08189453 6.98451172 -20.08056641 6.15576172 C-20.07943848 5.41326172 -20.07831055 4.67076172 -20.07714844 3.90576172 C-19.94775391 2.15576172 -19.94775391 2.15576172 -18.94775391 1.15576172 C-14.51045715 0.64594464 -10.0554082 0.45549723 -5.59472656 0.26855469 C-3.72936323 0.18906771 -1.86445501 0.09851932 0 0 Z " fill="#FEFDFD" transform="translate(45.94775390625,133.84423828125)"/>
<path d="M0 0 C11.45650016 -0.02312241 22.91299481 -0.04091457 34.36951351 -0.05181217 C39.68865213 -0.05704122 45.00777484 -0.06413927 50.3269043 -0.07543945 C55.45563985 -0.08626755 60.58436006 -0.09227667 65.71310616 -0.09487724 C67.67441614 -0.09673163 69.63572524 -0.10035251 71.59702873 -0.10573006 C74.33415447 -0.11293946 77.07121597 -0.11399099 79.80834961 -0.11352539 C81.03725418 -0.1189183 81.03725418 -0.1189183 82.29098511 -0.12442017 C87.88594784 -0.11405216 87.88594784 -0.11405216 89 1 C89.125 4.5 89.125 4.5 89 8 C87.2025818 9.7974182 84.75862038 9.12630946 82.36555481 9.13552856 C81.55720688 9.13350433 80.74885895 9.1314801 79.91601562 9.12939453 C78.64536507 9.13202301 78.64536507 9.13202301 77.3490448 9.13470459 C74.53475934 9.13912409 71.72053616 9.13618477 68.90625 9.1328125 C66.95951322 9.13348551 65.01277653 9.13445551 63.06604004 9.13571167 C58.98037925 9.13718878 54.89474029 9.13503368 50.80908203 9.13037109 C45.55953484 9.1246738 40.31003878 9.12795274 35.06049347 9.13394356 C31.03891613 9.13754883 27.01735101 9.13641074 22.99577332 9.13381577 C21.05958551 9.1331464 19.12339661 9.13397525 17.18721008 9.13629532 C14.48610476 9.13882129 11.78508341 9.13498205 9.08398438 9.12939453 C7.87146248 9.13243088 7.87146248 9.13243088 6.63444519 9.13552856 C1.11426248 9.11426248 1.11426248 9.11426248 0 8 C-0.14115161 5.32941149 -0.04247107 2.67567762 0 0 Z " fill="#FEFEFE" transform="translate(19,159)"/>
<path d="M0 0 C4.5535842 1.36607526 7.25028702 3.72017473 10.609375 7.0078125 C11.18236328 7.55937012 11.75535156 8.11092773 12.34570312 8.67919922 C15.27454808 11.81378205 16.69849059 13.90117817 16.640625 18.26953125 C16.50140625 20.11998047 16.50140625 20.11998047 16.359375 22.0078125 C18.05088316 25.81370586 20.04148582 27.6052031 23.359375 30.0078125 C23.359375 30.6678125 23.359375 31.3278125 23.359375 32.0078125 C12.56942216 32.75914384 3.63483069 30.53872625 -4.85546875 23.65234375 C-8.87599951 19.94852876 -12.46827358 16.07663247 -14.640625 11.0078125 C-14.55480752 7.66093086 -13.64861405 6.0202093 -11.828125 3.1953125 C-7.73877881 0.38889845 -4.9296105 -0.18394069 0 0 Z " fill="#FEFDFD" transform="translate(82.640625,99.9921875)"/>
<path d="M0 0 C8.93158308 -0.10175221 17.8289932 -0.04868103 26.75 0.4375 C27.49942871 0.47673584 28.24885742 0.51597168 29.02099609 0.55639648 C32.80735665 0.78031179 36.26038413 1.25207683 40 2 C40 8.27 40 14.54 40 21 C22.48498123 23.23345877 22.48498123 23.23345877 16.140625 19.16748047 C10.17313903 14.14505716 4.54832055 8.35458386 0 2 C0 1.34 0 0.68 0 0 Z " fill="#FDFCFC" transform="translate(156,134)"/>
<path d="M0 0 C0.54527344 1.35931641 0.54527344 1.35931641 1.1015625 2.74609375 C1.60429688 3.96425781 2.10703125 5.18242188 2.625 6.4375 C3.35589844 8.22994141 3.35589844 8.22994141 4.1015625 10.05859375 C6.37786515 15.01751373 6.37786515 15.01751373 12 23 C1.11 23.495 1.11 23.495 -10 24 C-9.01 23.34 -8.02 22.68 -7 22 C-7.66708984 21.41605469 -7.66708984 21.41605469 -8.34765625 20.8203125 C-10.99030512 18.20776214 -12.81022006 16.23452809 -13.38671875 12.484375 C-13.1589816 8.13784888 -12.56936669 4.9158941 -9.3125 1.875 C-5.71739753 -0.15996366 -4.02139119 -0.1687297 0 0 Z " fill="#F5D6D6" transform="translate(51,108)"/>
<path d="M0 0 C1.44250766 -0.03147466 2.88476312 -0.07905809 4.32617188 -0.14355469 C16.27315764 -0.67064783 16.27315764 -0.67064783 20.90014648 2.30053711 C22.9001361 4.2749593 24.58775655 6.1616604 26.11938477 8.51489258 C26.11938477 8.84489258 26.11938477 9.17489258 26.11938477 9.51489258 C20.58349943 9.53954033 15.04764577 9.55772753 9.51171875 9.56982422 C7.62694747 9.57486502 5.74218012 9.58169756 3.85742188 9.59033203 C1.15436841 9.60240875 -1.54863354 9.60812326 -4.25170898 9.61254883 C-5.09962509 9.61771011 -5.9475412 9.6228714 -6.82115173 9.62818909 C-8.84132592 9.62838453 -10.86139457 9.57695468 -12.88061523 9.51489258 C-13.88061523 8.51489258 -13.88061523 8.51489258 -14.00561523 5.01489258 C-13.74592805 -2.25634863 -5.81329305 0.09772996 0 0 Z " fill="#FEFEFE" transform="translate(126.880615234375,158.485107421875)"/>
<path d="M0 0 C7.92 0 15.84 0 24 0 C24 2.64 24 5.28 24 8 C23 9 23 9 20.31616211 9.11352539 C19.14835205 9.10828857 17.98054199 9.10305176 16.77734375 9.09765625 C15.51728516 9.09443359 14.25722656 9.09121094 12.95898438 9.08789062 C11.61848891 9.07953403 10.27799412 9.07106907 8.9375 9.0625 C7.59310058 9.0574866 6.2486994 9.05292342 4.90429688 9.04882812 C1.60282059 9.03699488 -1.69856803 9.02050971 -5 9 C-4.360625 8.071875 -3.72125 7.14375 -3.0625 6.1875 C-0.91377907 3.15780057 -0.91377907 3.15780057 0 0 Z " fill="#FEFEFE" transform="translate(178,159)"/>
<path d="M0 0 C3.87939509 1.58620127 6.33361087 4.09920987 9.25 7.0625 C10.14203125 7.96097656 11.0340625 8.85945312 11.953125 9.78515625 C14 12 14 12 14 13 C6.41 13 -1.18 13 -9 13 C-7.93230398 8.72921594 -6.85782195 7.40209354 -3.9375 4.25 C-3.20402344 3.45078125 -2.47054687 2.6515625 -1.71484375 1.828125 C-1.14894531 1.22484375 -0.58304688 0.6215625 0 0 Z " fill="#FEFEFE" transform="translate(126,142)"/>
<path d="M0 0 C6.41539076 0.59500652 6.41539076 0.59500652 8.99609375 2.3828125 C11.60540807 5.53661788 12.90288773 7.44646005 13.625 11.5625 C12.84268311 15.86524292 11.10326357 18.89673643 8 22 C7.63239269 24.32817964 7.29758419 26.6618385 7 29 C6.67 29 6.34 29 6 29 C5.98582031 28.07960938 5.97164062 27.15921875 5.95703125 26.2109375 C5.59376502 16.56965549 3.72369778 8.91763785 0 0 Z " fill="#F3D4D4" transform="translate(145,72)"/>
<path d="M0 0 C-0.42012187 8.82255936 -3.03789187 15.14158563 -9.1875 21.5625 C-12 24 -12 24 -14 24 C-14.92390166 20.05959891 -15.02067607 16.93424232 -14 13 C-11.64798689 9.6451906 -4.22151277 0 0 0 Z " fill="#FDFCFC" transform="translate(135,101)"/>
<path d="M0 0 C-0.928125 1.051875 -0.928125 1.051875 -1.875 2.125 C-4.14442742 4.88505697 -4.14442742 4.88505697 -5.0625 8.1875 C-6 11 -6 11 -9 13 C-9 12.34 -9 11.68 -9 11 C-9.66 11 -10.32 11 -11 11 C-11.66 8.03 -12.32 5.06 -13 2 C-3.89285714 -1.34821429 -3.89285714 -1.34821429 0 0 Z " fill="#FBF8F8" transform="translate(119,146)"/>
<path d="M0 0 C0.66 1.32 1.32 2.64 2 4 C-0.97 4 -3.94 4 -7 4 C-3.375 0 -3.375 0 0 0 Z " fill="#FAF4F4" transform="translate(61,127)"/>
</svg>
